<svg xmlns="http://www.w3.org/2000/svg" viewBox="0 0 300 225"><defs><style>.cls-1{fill:#fef3f3;}.cls-2{fill:#d69896;}.cls-3{fill:#e9baaa;}.cls-4{fill:#c5d6e0;}.cls-5{fill:#ebcdae;}.cls-6{fill:#eaccb0;}.cls-7{fill:#bacccb;}.cls-8{fill:#bacbcb;}</style></defs><g id="Layer_1" data-name="Layer 1"><rect class="cls-1" width="300" height="225"/></g><g id="Layer_2" data-name="Layer 2"><path class="cls-2" d="M33.08,29c-2.61-4.13-8.34-5-13.16-4.21-2.73.45-5.76,1.64-6.67,4.27-.73,2.14.24,4.5,1.56,6.34a17.44,17.44,0,0,0,10.72,6.88,8.1,8.1,0,0,0,7.28,14.31c4.14-1.47,6.36-6,7.42-10.23-.14,3.25,3.06,5.54,6,7A13.13,13.13,0,0,0,52.12,55c4.54-.09,8.15-4.64,8.19-9.18s-2.76-8.73-6.39-11.46a17.11,17.11,0,0,0,5.87-1.09,5.8,5.8,0,0,0,3.63-4.42,5.49,5.49,0,0,0-2.72-5A11.25,11.25,0,0,0,55,22.43c-3.68-.12-7.7.82-9.93,3.74,0-4.16-1.31-8.61-4.68-11s-9-1.74-10.7,2S33.08,29,33.08,29Z"/><path class="cls-3" d="M60.29,103.54c-3.64-1.23-7.59,1.06-10.14,3.94-1.45,1.63-2.72,3.86-2,5.92.61,1.67,2.37,2.64,4.09,3.11a13.73,13.73,0,0,0,10-1.1,6.37,6.37,0,0,0,11.54,5.16c1.81-2.95.95-6.81-.52-9.94,1.52,2.06,4.62,1.88,7.11,1.29a10.37,10.37,0,0,0,4.45-1.9c2.74-2.3,2.69-6.88.47-9.68s-6-4-9.59-3.85a13.56,13.56,0,0,0,3.05-3.58,4.57,4.57,0,0,0,0-4.5,4.34,4.34,0,0,0-4.12-1.69,8.83,8.83,0,0,0-4.21,1.93c-2.31,1.75-4.31,4.32-4.23,7.21-2-2.56-5.07-4.62-8.33-4.44S51.54,94.81,52.35,98,60.29,103.54,60.29,103.54Z"/><path class="cls-4" d="M173.05,159.13c1.35-4.24-1.38-8.76-4.76-11.67-1.93-1.65-4.53-3.07-6.9-2.17-1.93.74-3,2.8-3.53,4.8a16,16,0,0,0,1.47,11.55,7.38,7.38,0,0,0-5.75,13.47c3.45,2,7.9,1,11.5-.8-2.35,1.8-2.08,5.39-1.36,8.26a12.09,12.09,0,0,0,2.29,5.12c2.72,3.12,8,3,11.23.35s4.49-7,4.27-11.18a15.85,15.85,0,0,0,4.2,3.47,5.32,5.32,0,0,0,5.23-.06,5,5,0,0,0,1.87-4.81,10.29,10.29,0,0,0-2.32-4.84c-2.07-2.63-5.09-4.9-8.44-4.75,2.93-2.41,5.26-6,5-9.74s-4-7.31-7.7-6.3S173.05,159.13,173.05,159.13Z"/><path class="cls-5" d="M149.63,56.65c-2.66-3.57-7.93-4-12.26-2.93-2.46.6-5.14,1.89-5.78,4.34-.52,2,.52,4.08,1.85,5.66a15.94,15.94,0,0,0,10.23,5.54,7.38,7.38,0,0,0,7.59,12.52c3.67-1.62,5.39-5.86,6.06-9.81.1,3,3.17,4.83,5.92,5.92A12.27,12.27,0,0,0,168.73,79c4.13-.4,7.1-4.79,6.83-8.92s-3.1-7.76-6.59-10a15.23,15.23,0,0,0,5.26-1.39,5.32,5.32,0,0,0,3-4.27,5,5,0,0,0-2.82-4.33,10.28,10.28,0,0,0-5.29-.93c-3.35.14-6.94,1.27-8.77,4.08-.26-3.78-1.78-7.75-5-9.73s-8.29-1-9.6,2.59S149.63,56.65,149.63,56.65Z"/><path class="cls-6" d="M43,171.59c.71-2.22-.72-4.58-2.49-6.1-1-.86-2.36-1.6-3.6-1.13A3.48,3.48,0,0,0,35,166.87a8.35,8.35,0,0,0,.77,6,3.86,3.86,0,0,0-3,7c1.8,1.06,4.12.5,6-.42-1.23.94-1.09,2.81-.71,4.31a6.33,6.33,0,0,0,1.2,2.68c1.42,1.63,4.18,1.55,5.86.18a7.06,7.06,0,0,0,2.23-5.84,8.24,8.24,0,0,0,2.19,1.81,2.77,2.77,0,0,0,2.73,0,2.61,2.61,0,0,0,1-2.51,5.43,5.43,0,0,0-1.21-2.52,5.68,5.68,0,0,0-4.41-2.49,6.29,6.29,0,0,0,2.6-5.08c-.14-2-2.11-3.82-4-3.29S43,171.59,43,171.59Z"/><path class="cls-7" d="M223.46,104.8c.53-1.65-.53-3.41-1.85-4.53a2.8,2.8,0,0,0-2.68-.85,2.6,2.6,0,0,0-1.37,1.87,6.23,6.23,0,0,0,.57,4.48A2.87,2.87,0,0,0,215.9,111c1.34.79,3.07.37,4.47-.31-.91.7-.81,2.09-.53,3.21a4.69,4.69,0,0,0,.89,2,3.25,3.25,0,0,0,4.36.14,5.21,5.21,0,0,0,1.66-4.34,6.14,6.14,0,0,0,1.63,1.34,2,2,0,0,0,2,0,1.92,1.92,0,0,0,.73-1.87,4.06,4.06,0,0,0-.9-1.88,4.21,4.21,0,0,0-3.28-1.84,4.71,4.71,0,0,0,1.94-3.79c-.11-1.47-1.57-2.84-3-2.44S223.46,104.8,223.46,104.8Z"/><path class="cls-8" d="M266.66,42.31c2.71,3.64,8.08,4.06,12.5,3,2.51-.61,5.24-1.92,5.89-4.42.54-2-.53-4.16-1.88-5.78a16.28,16.28,0,0,0-10.43-5.64,7.78,7.78,0,0,0,1.73-9.78,7.78,7.78,0,0,0-9.47-3c-3.74,1.64-5.49,6-6.18,10-.09-3-3.22-4.92-6-6a12.33,12.33,0,0,0-5.6-1.15c-4.21.4-7.23,4.88-7,9.09s3.16,7.91,6.72,10.19a15.93,15.93,0,0,0-5.37,1.42,5.42,5.42,0,0,0-3.06,4.36A5.13,5.13,0,0,0,241.39,49a10.45,10.45,0,0,0,5.39,1c3.42-.15,7.08-1.3,8.95-4.16.26,3.85,1.81,7.9,5.11,9.91s8.45,1,9.79-2.63S266.66,42.31,266.66,42.31Z"/><path class="cls-2" d="M247.72,192.77c-3.65-1.23-7.59,1.06-10.14,3.94-1.46,1.63-2.72,3.86-2,5.92.6,1.67,2.37,2.64,4.09,3.11a13.73,13.73,0,0,0,10-1.1,6.37,6.37,0,0,0,11.54,5.16c1.81-3,.95-6.81-.52-9.94,1.52,2.06,4.62,1.88,7.11,1.29a10.37,10.37,0,0,0,4.45-1.9c2.74-2.3,2.69-6.88.47-9.68s-6-4-9.59-3.85a13.68,13.68,0,0,0,3.05-3.57,4.59,4.59,0,0,0,0-4.51A4.34,4.34,0,0,0,262.1,176a8.91,8.91,0,0,0-4.22,1.93c-2.3,1.75-4.3,4.32-4.22,7.21-2-2.56-5.07-4.62-8.33-4.44s-6.37,3.39-5.55,6.56S247.72,192.77,247.72,192.77Z"/><circle class="cls-5" cx="39.85" cy="35.77" r="6.77"/><circle class="cls-3" cx="154.35" cy="62.45" r="6.77"/><circle class="cls-5" cx="171.43" cy="167.52" r="4.72"/><circle class="cls-5" cx="254.87" cy="194.35" r="4.72"/><circle class="cls-3" cx="261.2" cy="36.1" r="5.46"/><circle class="cls-8" cx="67.44" cy="105.12" r="5.46"/></g></svg>